<?xml version="1.0" encoding="UTF-8" standalone="no"?>
<!DOCTYPE svg PUBLIC "-//W3C//DTD SVG 20010904//EN"
              "http://www.w3.org/TR/2001/REC-SVG-20010904/DTD/svg10.dtd">

<svg xmlns="http://www.w3.org/2000/svg"
     width="0.4in" height="0.433333in"
     viewBox="0 0 120 130">
  <path id="Selection"
        fill="none" stroke="black" stroke-width="1"
        d="M 11.00,32.00
           C 11.00,32.00 41.00,32.00 41.00,32.00
             41.00,32.00 41.00,37.00 41.00,37.00
             38.08,37.01 33.87,36.55 32.02,39.31
             30.79,41.16 31.00,44.81 31.00,47.00
             31.00,47.00 31.00,81.00 31.00,81.00
             31.01,83.54 30.68,87.48 32.60,89.40
             35.98,92.78 48.34,90.79 51.98,88.30
             57.99,84.20 59.65,77.70 61.00,71.00
             61.00,71.00 66.00,71.00 66.00,71.00
             66.00,71.00 64.00,96.00 64.00,96.00
             64.00,96.00 11.00,96.00 11.00,96.00
             11.00,96.00 11.00,91.00 11.00,91.00
             13.73,90.96 17.24,91.29 18.98,88.69
             20.45,86.47 20.00,78.90 20.00,76.00
             20.00,76.00 20.00,45.00 20.00,45.00
             19.86,37.51 17.95,37.09 11.00,37.00
             11.00,37.00 11.00,32.00 11.00,32.00 Z
           M 70.00,32.00
           C 70.00,32.00 100.00,32.00 100.00,32.00
             100.00,32.00 100.00,37.00 100.00,37.00
             97.27,37.04 93.76,36.71 92.02,39.31
             90.55,41.53 91.00,49.10 91.00,52.00
             91.00,52.00 91.00,83.00 91.00,83.00
             91.14,90.49 93.05,90.91 100.00,91.00
             100.00,91.00 100.00,96.00 100.00,96.00
             100.00,96.00 70.00,96.00 70.00,96.00
             70.00,96.00 70.00,91.00 70.00,91.00
             77.22,90.97 79.84,91.17 80.00,83.00
             80.00,83.00 80.00,52.00 80.00,52.00
             80.00,49.10 80.45,41.53 78.98,39.31
             77.13,36.55 72.92,37.01 70.00,37.00
             70.00,37.00 70.00,32.00 70.00,32.00 Z" />
</svg>
