<?xml version="1.0" encoding="UTF-8" standalone="no"?>
<!DOCTYPE svg PUBLIC "-//W3C//DTD SVG 20010904//EN"
              "http://www.w3.org/TR/2001/REC-SVG-20010904/DTD/svg10.dtd">

<svg xmlns="http://www.w3.org/2000/svg"
     width="1.66667in" height="1.66667in"
     viewBox="0 0 120 120">
  <path id="Selection"
        fill="none" stroke="black" stroke-width="1"
        d="M 63.00,11.00
           C 63.00,11.00 64.00,11.00 64.00,11.00
             64.00,11.00 63.00,12.00 63.00,12.00
             63.00,12.00 63.00,11.00 63.00,11.00 Z
           M 72.00,11.00
           C 72.00,11.00 73.00,11.00 73.00,11.00
             73.00,11.00 72.00,12.00 72.00,12.00
             72.00,12.00 72.00,11.00 72.00,11.00 Z
           M 70.00,14.00
           C 70.00,14.00 71.00,14.00 71.00,14.00
             71.00,14.00 70.00,15.00 70.00,15.00
             70.00,15.00 70.00,14.00 70.00,14.00 Z
           M 75.00,14.00
           C 75.00,14.00 76.00,14.00 76.00,14.00
             76.00,14.00 75.00,15.00 75.00,15.00
             75.00,15.00 75.00,14.00 75.00,14.00 Z
           M 73.00,15.00
           C 73.00,15.00 74.00,15.00 74.00,15.00
             74.00,15.00 73.00,16.00 73.00,16.00
             73.00,16.00 73.00,15.00 73.00,15.00 Z
           M 79.00,15.00
           C 79.00,15.00 80.00,15.00 80.00,15.00
             80.00,15.00 79.00,16.00 79.00,16.00
             79.00,16.00 79.00,15.00 79.00,15.00 Z
           M 62.00,16.00
           C 62.00,16.00 62.00,19.00 62.00,19.00
             62.00,19.00 61.00,17.00 61.00,17.00
             61.00,17.00 62.00,16.00 62.00,16.00 Z
           M 69.00,16.00
           C 69.00,16.00 70.00,16.00 70.00,16.00
             70.00,16.00 69.00,17.00 69.00,17.00
             69.00,17.00 69.00,16.00 69.00,16.00 Z
           M 71.00,16.00
           C 71.00,16.00 72.00,16.00 72.00,16.00
             72.00,16.00 71.00,17.00 71.00,17.00
             71.00,17.00 71.00,16.00 71.00,16.00 Z
           M 70.00,18.00
           C 70.00,18.00 81.00,18.00 81.00,18.00
             77.86,21.19 76.35,21.96 72.00,23.00
             72.00,23.00 72.00,22.00 72.00,22.00
             72.00,22.00 70.00,20.00 70.00,20.00
             70.00,20.00 70.00,23.00 70.00,23.00
             70.00,23.00 70.00,18.00 70.00,18.00 Z
           M 82.00,17.00
           C 82.00,17.00 85.00,20.00 85.00,20.00
             85.00,20.00 82.00,17.00 82.00,17.00 Z
           M 68.00,18.00
           C 68.00,18.00 69.00,18.00 69.00,18.00
             69.00,18.00 68.00,19.00 68.00,19.00
             68.00,19.00 68.00,18.00 68.00,18.00 Z
           M 61.00,20.00
           C 61.00,20.00 61.00,23.00 61.00,23.00
             61.00,23.00 60.00,21.00 60.00,21.00
             60.00,21.00 61.00,20.00 61.00,20.00 Z
           M 67.00,20.00
           C 67.00,20.00 68.00,20.00 68.00,20.00
             68.00,20.00 67.00,21.00 67.00,21.00
             67.00,21.00 67.00,20.00 67.00,20.00 Z
           M 66.00,23.00
           C 66.00,23.00 67.00,23.00 67.00,23.00
             67.00,23.00 66.00,24.00 66.00,24.00
             66.00,24.00 66.00,23.00 66.00,23.00 Z
           M 60.00,25.00
           C 60.00,25.00 61.00,25.00 61.00,25.00
             61.00,25.00 60.00,26.00 60.00,26.00
             60.00,26.00 60.00,25.00 60.00,25.00 Z
           M 51.00,27.00
           C 51.00,27.00 54.00,28.00 54.00,28.00
             54.00,28.00 51.00,27.00 51.00,27.00 Z
           M 67.00,26.00
           C 67.00,26.00 68.00,26.00 68.00,26.00
             68.00,26.00 67.00,27.00 67.00,27.00
             67.00,27.00 67.00,26.00 67.00,26.00 Z
           M 62.00,32.00
           C 65.98,36.40 64.93,28.45 73.00,26.00
             73.00,26.00 71.00,30.00 71.00,30.00
             71.00,30.00 74.00,29.00 74.00,29.00
             75.09,32.88 79.16,36.20 81.66,42.00
             86.15,52.40 84.44,66.05 77.47,75.00
             68.41,86.64 51.31,90.42 38.00,84.20
             32.36,81.57 28.38,79.35 27.00,73.00
             27.00,73.00 25.00,75.00 25.00,75.00
             25.00,75.00 24.00,75.00 24.00,75.00
             24.00,75.00 25.00,69.00 25.00,69.00
             25.00,69.00 24.00,72.00 24.00,72.00
             24.00,72.00 24.00,63.00 24.00,63.00
             24.00,63.00 24.00,65.00 24.00,65.00
             24.00,65.00 23.00,65.00 23.00,65.00
             23.00,65.00 24.00,60.00 24.00,60.00
             24.00,60.00 25.00,62.00 25.00,62.00
             25.00,62.00 23.00,55.00 23.00,55.00
             23.00,55.00 27.00,52.00 27.00,52.00
             27.00,52.00 25.00,53.00 25.00,53.00
             25.00,53.00 25.00,52.00 25.00,52.00
             30.55,47.31 30.42,44.97 35.09,40.01
             41.53,33.19 49.62,28.79 59.00,28.00
             59.00,28.00 60.00,34.00 60.00,34.00
             60.00,34.00 62.00,32.00 62.00,32.00 Z
           M 46.00,29.00
           C 46.00,29.00 47.00,29.00 47.00,29.00
             47.00,29.00 46.00,30.00 46.00,30.00
             46.00,30.00 46.00,29.00 46.00,29.00 Z
           M 75.00,30.00
           C 75.00,30.00 77.00,33.00 77.00,33.00
             77.00,33.00 75.00,30.00 75.00,30.00 Z
           M 48.00,33.38
           C 44.50,34.34 41.80,35.58 40.02,39.02
             37.35,44.20 40.63,47.57 46.00,46.76
             53.88,45.56 59.44,33.24 48.00,33.38 Z
           M 64.00,32.00
           C 64.00,32.00 65.00,32.00 65.00,32.00
             65.00,32.00 64.00,33.00 64.00,33.00
             64.00,33.00 64.00,32.00 64.00,32.00 Z
           M 40.00,33.00
           C 40.00,33.00 41.00,33.00 41.00,33.00
             41.00,33.00 40.00,34.00 40.00,34.00
             40.00,34.00 40.00,33.00 40.00,33.00 Z
           M 80.00,33.00
           C 80.00,33.00 81.00,33.00 81.00,33.00
             81.00,33.00 80.00,34.00 80.00,34.00
             80.00,34.00 80.00,33.00 80.00,33.00 Z
           M 35.00,36.00
           C 35.00,36.00 33.00,39.00 33.00,39.00
             33.00,39.00 33.00,38.00 33.00,38.00
             33.00,38.00 35.00,36.00 35.00,36.00 Z
           M 84.00,36.00
           C 84.00,36.00 90.00,42.00 90.00,42.00
             90.00,42.00 84.00,36.00 84.00,36.00 Z
           M 29.00,43.00
           C 29.00,43.00 27.00,47.00 27.00,47.00
             27.00,47.00 29.00,43.00 29.00,43.00 Z
           M 91.00,44.00
           C 91.00,44.00 92.00,48.00 92.00,48.00
             92.00,48.00 90.00,45.00 90.00,45.00
             90.00,45.00 91.00,44.00 91.00,44.00 Z
           M 38.23,47.00
           C 36.98,47.38 36.39,47.40 35.34,48.13
             28.87,52.62 37.74,57.22 38.23,49.98
             38.60,48.61 38.20,47.98 38.23,47.00 Z
           M 26.00,49.00
           C 26.00,49.00 27.00,49.00 27.00,49.00
             27.00,49.00 26.00,50.00 26.00,50.00
             26.00,50.00 26.00,49.00 26.00,49.00 Z
           M 93.94,52.00
           C 93.94,52.00 93.94,56.00 93.94,56.00
             93.94,56.00 97.00,55.00 97.00,55.00
             94.30,61.39 94.30,64.61 97.00,71.00
             97.00,71.00 94.00,70.00 94.00,70.00
             94.00,70.00 96.00,75.00 96.00,75.00
             96.00,75.00 95.00,75.00 95.00,75.00
             95.00,75.00 93.00,73.00 93.00,73.00
             93.00,73.00 94.00,80.00 94.00,80.00
             94.00,80.00 91.00,85.00 91.00,85.00
             91.00,85.00 81.00,91.00 81.00,91.00
             81.00,91.00 81.00,94.00 81.00,94.00
             81.00,94.00 81.00,93.00 81.00,93.00
             81.00,93.00 79.00,92.00 79.00,92.00
             79.00,92.00 78.00,93.00 78.00,93.00
             78.00,93.00 79.00,95.00 79.00,95.00
             79.00,95.00 77.00,96.00 77.00,96.00
             77.00,96.00 77.00,97.00 77.00,97.00
             77.00,97.00 71.00,96.00 71.00,96.00
             71.00,96.00 72.00,99.00 72.00,99.00
             67.30,97.57 52.70,97.57 48.00,99.00
             51.48,94.42 52.71,97.29 59.00,96.82
             63.03,96.51 69.39,94.82 73.00,93.01
             84.86,87.08 92.81,75.22 93.94,62.00
             94.14,57.82 93.05,56.68 93.94,52.00 Z
           M 26.00,56.00
           C 26.00,56.00 25.00,56.00 25.00,56.00
             25.00,56.00 26.00,57.00 26.00,57.00
             26.00,57.00 26.00,56.00 26.00,56.00 Z
           M 96.00,61.00
           C 96.00,61.00 96.00,66.00 96.00,66.00
             96.00,66.00 96.00,61.00 96.00,61.00 Z
           M 93.00,77.00
           C 93.00,77.00 92.00,77.00 92.00,77.00
             92.00,77.00 93.00,78.00 93.00,78.00
             93.00,78.00 93.00,77.00 93.00,77.00 Z
           M 26.00,77.00
           C 26.00,77.00 27.00,77.00 27.00,77.00
             27.00,77.00 26.00,78.00 26.00,78.00
             26.00,78.00 26.00,77.00 26.00,77.00 Z
           M 26.00,79.00
           C 26.00,79.00 29.00,83.00 29.00,83.00
             29.00,83.00 26.00,79.00 26.00,79.00 Z
           M 91.00,81.00
           C 91.00,81.00 90.00,81.00 90.00,81.00
             90.00,81.00 91.00,82.00 91.00,82.00
             91.00,82.00 91.00,81.00 91.00,81.00 Z
           M 90.00,82.00
           C 90.00,82.00 89.00,82.00 89.00,82.00
             89.00,82.00 90.00,83.00 90.00,83.00
             90.00,83.00 90.00,82.00 90.00,82.00 Z
           M 89.00,84.00
           C 89.00,84.00 88.00,84.00 88.00,84.00
             88.00,84.00 89.00,85.00 89.00,85.00
             89.00,85.00 89.00,84.00 89.00,84.00 Z
           M 29.00,84.00
           C 33.41,85.93 34.43,86.97 37.00,91.00
             37.00,91.00 29.00,84.00 29.00,84.00 Z
           M 88.00,85.00
           C 88.00,85.00 87.00,85.00 87.00,85.00
             87.00,85.00 88.00,86.00 88.00,86.00
             88.00,86.00 88.00,85.00 88.00,85.00 Z
           M 87.00,86.00
           C 87.00,86.00 86.00,86.00 86.00,86.00
             86.00,86.00 87.00,87.00 87.00,87.00
             87.00,87.00 87.00,86.00 87.00,86.00 Z
           M 86.00,87.00
           C 86.00,87.00 85.00,87.00 85.00,87.00
             85.00,87.00 86.00,88.00 86.00,88.00
             86.00,88.00 86.00,87.00 86.00,87.00 Z
           M 85.00,88.00
           C 85.00,88.00 84.00,88.00 84.00,88.00
             84.00,88.00 85.00,89.00 85.00,89.00
             85.00,89.00 85.00,88.00 85.00,88.00 Z
           M 84.00,89.00
           C 84.00,89.00 83.00,89.00 83.00,89.00
             83.00,89.00 84.00,90.00 84.00,90.00
             84.00,90.00 84.00,89.00 84.00,89.00 Z
           M 42.00,93.00
           C 42.00,93.00 45.00,96.00 45.00,96.00
             45.00,96.00 48.00,96.00 48.00,96.00
             48.00,96.00 43.00,97.00 43.00,97.00
             43.00,97.00 41.00,94.00 41.00,94.00
             41.00,94.00 42.00,93.00 42.00,93.00 Z
           M 77.00,94.00
           C 77.00,94.00 76.00,94.00 76.00,94.00
             76.00,94.00 77.00,95.00 77.00,95.00
             77.00,95.00 77.00,94.00 77.00,94.00 Z
           M 75.00,95.00
           C 75.00,95.00 74.00,95.00 74.00,95.00
             74.00,95.00 75.00,96.00 75.00,96.00
             75.00,96.00 75.00,95.00 75.00,95.00 Z
           M 57.00,99.00
           C 57.00,99.00 58.00,99.00 58.00,99.00
             58.00,99.00 57.00,100.00 57.00,100.00
             57.00,100.00 57.00,99.00 57.00,99.00 Z
           M 62.00,99.00
           C 62.00,99.00 63.00,99.00 63.00,99.00
             63.00,99.00 62.00,100.00 62.00,100.00
             62.00,100.00 62.00,99.00 62.00,99.00 Z
           M 67.00,99.00
           C 67.00,99.00 68.00,99.00 68.00,99.00
             68.00,99.00 67.00,100.00 67.00,100.00
             67.00,100.00 67.00,99.00 67.00,99.00 Z
           M 38.00,107.00
           C 50.20,105.39 58.59,104.19 71.00,105.72
             76.00,106.33 78.81,105.64 83.00,109.00
             71.79,110.48 60.28,111.93 49.00,110.42
             44.65,109.84 40.86,110.68 38.00,107.00 Z" />
</svg>
